<?xml version="1.0" encoding="UTF-8"?>
<svg id="Layer_1" data-name="Layer 1" xmlns="http://www.w3.org/2000/svg" viewBox="0 0 900.14 366.16">
  <defs>
    <style>
      .cls-1 {
        fill: #6dff9a;
      }
    </style>
  </defs>
  <g>
    <path class="cls-1" d="M291.91,128.99v15.57h-47.36v21.62h43.11v14.93h-43.11v39.51h-17.37v-91.63h64.74,0Z"/>
    <path class="cls-1" d="M342.23,191.41v-37.19h16.22v66.41h-15.7v-9.65c-5.06,7.46-12.01,11.2-20.85,11.2-7.12,0-12.76-2.08-16.92-6.24s-6.24-10.06-6.24-17.7v-44.01h16.22v41.31c0,8.41,4.16,12.61,12.48,12.61,4.12,0,7.61-1.48,10.49-4.44,2.87-2.96,4.31-7.06,4.31-12.29h0Z"/>
    <path class="cls-1" d="M407.99,152.67c7.21,0,12.89,2.08,17.05,6.24,4.16,4.16,6.24,10.06,6.24,17.7v44.01h-16.22v-41.31c0-8.41-4.16-12.61-12.48-12.61-4.12,0-7.62,1.48-10.49,4.44-2.88,2.96-4.31,7.06-4.31,12.29v37.19h-16.22v-66.41h15.7v9.52c5.06-7.38,11.97-11.07,20.72-11.07h0Z"/>
    <path class="cls-1" d="M491.78,162.84v-33.85h16.22v91.63h-15.7v-9.27c-4.89,7.21-11.88,10.81-20.98,10.81s-16.43-3.17-21.75-9.52c-5.41-6.35-8.11-14.76-8.11-25.22s2.7-19.09,8.11-25.35c5.23-6.26,12.48-9.4,21.75-9.4s15.74,3.39,20.46,10.17ZM458.06,187.94c0,6.87,1.5,12.06,4.5,15.57,3,3.52,7.16,5.28,12.48,5.28s9.52-1.84,12.61-5.53c3-3.69,4.5-8.96,4.5-15.83s-1.5-12.14-4.5-15.83-7.21-5.53-12.61-5.53-9.37,1.93-12.42,5.79-4.57,9.22-4.57,16.09h.01Z"/>
    <path class="cls-1" d="M580.83,172.36c5.06,1.8,8.99,4.68,11.78,8.62,2.79,3.95,4.18,8.41,4.18,13.38,0,8.32-2.72,14.78-8.17,19.37-5.45,4.59-13.36,6.89-23.74,6.89h-42.86v-91.63h41.44c9.61,0,16.94,2.19,22.01,6.56,5.06,4.38,7.59,10.08,7.59,17.12,0,9.01-4.08,15.57-12.23,19.69h0ZM562.17,143.28h-22.78v23.94h22.78c4.38,0,7.74-1.09,10.1-3.28s3.54-5.21,3.54-9.07c0-3.6-1.2-6.44-3.6-8.49-2.4-2.06-5.75-3.09-10.04-3.09h0ZM539.39,206.21h24.58c4.89,0,8.62-1.09,11.2-3.28,2.57-2.19,3.86-5.3,3.86-9.33,0-8.49-5.02-12.74-15.06-12.74h-24.58v25.35h0Z"/>
    <path class="cls-1" d="M641.97,153.19c1.46,0,2.79.09,3.99.26v14.93h-4.12c-6.18,0-10.92,1.57-14.22,4.7s-4.96,7.74-4.96,13.84v33.72h-16.22v-66.41h15.7v11.84c3.69-8.58,10.3-12.87,19.82-12.87h0Z"/>
    <path class="cls-1" d="M670.92,220.63h-16.22v-66.41h16.22v66.41ZM670.8,145.59h-15.96v-15.19h15.96v15.19Z"/>
    <path class="cls-1" d="M731.41,162.84v-33.85h16.22v91.63h-15.7v-9.27c-4.89,7.21-11.88,10.81-20.98,10.81s-16.43-3.17-21.75-9.52c-5.41-6.35-8.11-14.76-8.11-25.22s2.7-19.09,8.11-25.35c5.23-6.26,12.48-9.4,21.75-9.4s15.74,3.39,20.46,10.17ZM697.69,187.94c0,6.87,1.5,12.06,4.5,15.57,3,3.52,7.16,5.28,12.48,5.28s9.52-1.84,12.61-5.53c3-3.69,4.5-8.96,4.5-15.83s-1.5-12.14-4.5-15.83-7.21-5.53-12.61-5.53-9.37,1.93-12.42,5.79-4.57,9.22-4.57,16.09h.01Z"/>
    <path class="cls-1" d="M808.63,163.35v-9.14h15.7v64.22c0,9.01-2.85,16.09-8.56,21.23-5.71,5.15-13.79,7.72-24.26,7.72-9.27,0-16.54-2.06-21.81-6.18-5.28-4.12-8.17-9.78-8.69-16.99h15.96c.77,7.12,5.71,10.68,14.8,10.68,5.32,0,9.37-1.37,12.16-4.12s4.18-6.74,4.18-11.97v-8.37c-4.81,6.61-11.58,9.91-20.33,9.91s-16.26-3.13-21.75-9.4c-5.49-6.09-8.24-14.24-8.24-24.45s2.75-18.49,8.24-24.58c5.41-6.18,12.61-9.27,21.62-9.27s16.34,3.56,20.98,10.68v.03ZM791.38,206.98c5.41,0,9.61-1.8,12.61-5.41,3-3.6,4.5-8.62,4.5-15.06s-1.5-11.45-4.5-15.06c-3-3.6-7.21-5.41-12.61-5.41s-9.37,1.82-12.42,5.47c-3.05,3.65-4.57,8.69-4.57,15.12s1.52,11.33,4.57,14.93c3.04,3.6,7.18,5.41,12.42,5.41h0Z"/>
    <path class="cls-1" d="M900.14,188.58v3.86h-49.68c.6,5.66,2.38,9.93,5.34,12.81s6.93,4.31,11.9,4.31c7.38,0,12.44-3.17,15.19-9.52h15.57c-1.72,6.78-5.32,12.16-10.81,16.15-5.49,3.99-12.18,5.98-20.08,5.98-9.87,0-17.85-3.17-23.94-9.52-6.09-6.35-9.14-14.76-9.14-25.22s3-18.87,9.01-25.23c6.09-6.35,14.03-9.52,23.81-9.52s18.02,3.3,23.94,9.91,8.88,15.27,8.88,26h0ZM867.19,165.28c-9.52,0-15.06,5.28-16.6,15.83h33.33c-.69-4.89-2.49-8.75-5.41-11.58s-6.69-4.25-11.33-4.25h0Z"/>
  </g>
  <g>
    <polygon class="cls-1" points="183.82 188.39 0 117.45 183.82 117.45 183.82 188.39"/>
    <polygon class="cls-1" points="125.06 229.68 0 167.3 125.06 167.3 125.06 229.68"/>
    <polygon class="cls-1" points="80.41 248.71 0 208.6 80.41 208.6 80.41 248.71"/>
  </g>
</svg>